<?xml version="1.0" standalone="no"?>
<!DOCTYPE svg PUBLIC "-//W3C//DTD SVG 20010904//EN"
 "http://www.w3.org/TR/2001/REC-SVG-20010904/DTD/svg10.dtd">
<svg version="1.0" xmlns="http://www.w3.org/2000/svg"
 width="700.000000pt" height="700.000000pt" viewBox="0 0 700.000000 700.000000"
 preserveAspectRatio="xMidYMid meet">
<metadata>
Created by potrace 1.11, written by Peter Selinger 2001-2013
</metadata>
<g transform="translate(0.000000,700.000000) scale(0.100000,-0.100000)"
fill="#000000" stroke="none">
<path d="M5024 6339 c-211 -15 -380 -54 -576 -131 -273 -107 -391 -132 -628
-132 -157 0 -191 4 -700 83 -500 78 -548 84 -733 88 -124 3 -234 1 -295 -7
-743 -91 -1377 -588 -1637 -1284 -92 -248 -129 -464 -129 -751 0 -208 16 -353
54 -498 10 -39 18 -72 17 -73 -1 -2 -49 -8 -107 -14 -142 -15 -178 -27 -226
-76 -51 -50 -68 -98 -62 -174 7 -99 84 -185 177 -197 l41 -6 0 -212 0 -213
-49 -12 c-30 -7 -66 -26 -91 -48 -107 -91 -107 -243 0 -334 69 -60 96 -62 407
-30 l271 28 5 -341 c4 -360 5 -368 57 -479 53 -111 153 -212 266 -266 34 -17
67 -30 73 -30 6 0 11 -4 11 -9 0 -12 -62 -21 -153 -21 -117 0 -184 -36 -229
-124 -16 -31 -19 -53 -16 -106 4 -77 32 -128 95 -170 34 -23 47 -25 173 -28
236 -6 363 41 511 188 96 95 158 202 179 307 18 95 19 97 32 116 13 17 16 14
46 -32 97 -149 296 -206 511 -145 144 41 266 262 336 608 29 145 61 399 73
589 5 76 11 139 13 140 6 4 1060 108 1089 107 26 0 26 -1 43 -147 50 -411 195
-1019 274 -1138 71 -108 185 -204 279 -235 33 -11 35 -14 18 -23 -10 -6 -68
-13 -129 -15 -120 -5 -159 -18 -206 -69 -42 -45 -59 -87 -59 -148 0 -85 44
-156 122 -196 31 -16 59 -19 165 -19 183 0 287 30 416 119 121 83 232 250 261
394 12 54 22 77 53 110 l38 42 39 -39 c97 -97 279 -130 455 -80 42 12 67 28
111 73 179 179 281 624 309 1350 5 141 13 236 19 240 6 3 185 23 399 44 362
35 392 40 443 65 159 79 158 313 -3 391 -24 12 -55 21 -70 21 l-27 0 0 214 0
214 51 12 c134 32 204 179 148 309 -20 47 -20 50 -3 107 26 87 33 898 9 1047
-89 566 -559 999 -1135 1047 -135 11 -666 11 -826 -1z"/>
</g>
</svg>
